<svg width="16" height="16" viewBox="0 0 16 16" fill="none" xmlns="http://www.w3.org/2000/svg">
<path d="M6.37796 10.339C6.60796 10.57 6.86496 10.757 7.13896 10.9L7.76096 10.277C7.85696 10.181 7.92496 10.067 7.96796 9.946C7.69596 9.855 7.43996 9.703 7.22396 9.486L6.54896 8.808C5.80996 8.064 5.80996 6.853 6.54896 6.109L10.867 1.762C11.223 1.404 11.698 1.206 12.205 1.206C12.712 1.206 13.188 1.403 13.543 1.762L14.246 2.47C14.985 3.214 14.985 4.425 14.248 5.168L12.021 7.395C12.175 7.887 12.236 8.403 12.203 8.913L15.094 6.021C16.299 4.807 16.299 2.832 15.094 1.618L14.391 0.91C13.812 0.323 13.035 0 12.207 0C11.379 0 10.603 0.323 10.021 0.909L5.70196 5.256C4.49696 6.47 4.49696 8.446 5.70296 9.66L6.37796 10.339Z" fill="#0964B0"/>
<path d="M9.63099 5.709C9.40099 5.479 9.14299 5.293 8.86899 5.151L8.24599 5.771C8.14999 5.867 8.08199 5.98 8.03899 6.101C8.31099 6.192 8.56699 6.343 8.78299 6.559L9.45799 7.234C10.197 7.975 10.197 9.18 9.45799 9.92L5.13599 14.248C4.77999 14.605 4.30399 14.801 3.79599 14.801C3.28799 14.801 2.81199 14.605 2.45599 14.248L1.75299 13.543C1.01399 12.802 1.01399 11.597 1.75099 10.859L3.97999 8.645C3.82499 8.155 3.76499 7.642 3.79799 7.134L0.904988 10.009C-0.301012 11.217 -0.301012 13.183 0.904988 14.391L1.60799 15.096C2.19099 15.68 2.96799 16.001 3.79699 16.001C4.62599 16.001 5.40299 15.68 5.98599 15.096L10.308 10.768C11.514 9.56 11.514 7.594 10.307 6.386L9.63099 5.709Z" fill="#0964B0"/>
</svg>
